/* XPM */
static char *_b326fff833446cfebc9f2dfd6d0d095h8TsfKvCbR36Xgev[] = {
/* columns rows colors chars-per-pixel */
"32 32 7 1 ",
"  c #1E1E1E",
". c #AE0013",
"X c #FE001A",
"o c #817A7A",
"O c #FFDBAB",
"+ c gray84",
"@ c white",
/* pixels */
"OOOOOOOOOOOOOOOOOOOOOOOOOOOOOOOO",
"OOOOOOOOOO            OOOOOOOOOO",
"OOOOOOOOO oooooooo@@@o OOOOOOOOO",
"OOOOOOOO ..XXXXXXXXXXXX OOOOOOOO",
"OOOOOOO ..XXXXXXXXXXXXXX OOOOOOO",
"OOOOOOO .XXXXXXXXXXXXXXX OOOOOOO",
"OOOOOOO .XXXXXXXXXXXXXXX OOOOOOO",
"OOOOOOO .XXXXXXXXXXXXXXX OOOOOOO",
"OOOOOOO .XXXXXXXXXXXXXXX OOOOOOO",
"OOOOOOO .XXXXXXXXXXXXXXX OOOOOOO",
"OOOOOOO .XXXXXXXXXXXXXXX OOOOOOO",
"OOOOOOO .XXXXXXXXXXXXXXX OOOOOOO",
"OOOOOOO .XXXXXXXXXXXXXXX OOOOOOO",
"OOOOOOO .XX@@XXX@@XXXXXX OOOOOOO",
"OOOOOOO +X@XX@X@XX@XXXXX OOOOOOO",
"OOOOOOO +X@XXXX@XX@XXXXX OOOOOOO",
"OOOOOOO +X@XXXX@@@@XXXXX OOOOOOO",
"OOOOOOO +X@XX@X@XX@XXXXX OOOOOOO",
"OOOOOOO .XX@@XX@XX@XXXXX OOOOOOO",
"OOOOOOO .XXXXXXXXXXXXXXX OOOOOOO",
"OOOOOOO .XXXXXXXXXXXXXXX OOOOOOO",
"OOOOOOO .XXXXXXXXXXXXXXX OOOOOOO",
"OOOOOOO .XXXXXXXXXXXXXXX OOOOOOO",
"OOOOOOO .XXXXXXXXXXXXXXX OOOOOOO",
"OOOOOOO .XXXXXXXXXXXXXXX OOOOOOO",
"OOOOOOO .XXXXXXXXXXXXXXX OOOOOOO",
"OOOOOOO .XXXXXXXXXXXXXXX OOOOOOO",
"OOOOOOO ..XXXXXXXXXXXXXX OOOOOOO",
"OOOOOOOO ..XXXXXXXXXXXX OOOOOOOO",
"OOOOOOOOO oooooooo@@@o OOOOOOOOO",
"OOOOOOOOOO            OOOOOOOOOO",
"OOOOOOOOOOOOOOOOOOOOOOOOOOOOOOOO"
};
