/* XPM */
static char *e9d44d5eefd74d25f4793debaddd2a04wN8jO245q9SU8xEn[] = {
/* columns rows colors chars-per-pixel */
"32 32 13 1 ",
"  c #FFDBAB",
". c #1E1E1E",
"X c #747171",
"o c #FE001A",
"O c #CA7B10",
"+ c #F69310",
"@ c #FFA62F",
"# c #276FBF",
"$ c #5598E3",
"% c #E5AF83",
"& c #FED7AE",
"* c gray85",
"= c white",
/* pixels */
"                                ",
"              @@@@              ",
"            ++@@@@@@            ",
"          +++++@@@@@@@          ",
"         ++++++@@@@@@@@         ",
"        +++++OOOOOO@@@@@        ",
"       ++++OO+@@@@@OO@@@@       ",
"      +++OO++@@@@@@@@OO@@@      ",
"      +OO+++@@@@@@@@@@@OO@      ",
"      O++++%%%%%%%%%%@@@@O      ",
"      +++.%&&&&&&&&&&%.@@@      ",
"      ++..&&&&&&&&&&&&..@@      ",
"     ....%&&..&&&&..&&%....     ",
"      ...&&&..&&&&..&&&...      ",
"      ..%&&&.$&%%&$.&&&%..      ",
"       .%&&&&&&&&&&&&&&%.       ",
"        .%&&&&&&+&&&&&%.        ",
"          %%&&&&+&&&%%          ",
"           **%%%=%%==           ",
"          =====*======          ",
"         ==*===*o====*=         ",
"         ==*===*=====**         ",
"         =&**========&*         ",
"         &&&**======&&&         ",
"          &&##$$$$$$&&          ",
"          X####$$$$$$X          ",
"         XX######$$$$XX         ",
"        XXX######$$$$XXX        ",
"        XXXXXXXX#$$$$XXX        ",
"        XXXXXXXX#$$$$XXX        ",
"         XXXXXXX#$$$$XX         ",
"          XXXXXXXXXXXX          "
};
