/* XPM */
static char *_cca476f15f544ee8e038c8482d43eafiKVlMz8xroVcV9vM[] = {
/* columns rows colors chars-per-pixel */
"32 32 13 1 ",
"  c #FFDBAB",
". c #1E1E1E",
"X c #747171",
"o c #FE001A",
"O c #CA7B10",
"+ c #F69310",
"@ c #FFA62F",
"# c #276FBF",
"$ c #5598E3",
"% c #E5AF83",
"& c #FED7AE",
"* c gray85",
"= c white",
/* pixels */
"                                ",
"               ++@@@            ",
"             +++@@@@@@          ",
"           ++++@@@@@@@@@        ",
"          +++++@@@@@@@@@@       ",
"          OOOOOOO@@@@@@@@       ",
"          ++++@@@OOO@@@@@@      ",
"          ++++@@@@@@OOO@@@      ",
"           %%%%%.@@@@@@OOO      ",
"           &&&&%....@@@@@@      ",
"           &&&&&%......@@@      ",
"           &&..&&%.%......      ",
"           &&..&&&%%.....       ",
"           %&$.&&&&.....        ",
"           &&&&&&&%%...         ",
"        o==++&&&&%%%..          ",
"           %&&&&%*===           ",
"            %%%%======          ",
"            **=========         ",
"            **====*====         ",
"            **=====*===         ",
"            **======*==         ",
"            *======*&&          ",
"            *=====*&&&          ",
"            #$$$$$#&&           ",
"           X##$#$$$##X          ",
"          X####$$$$$$XX         ",
"         XX#####$$$$$$XX        ",
"         XX####X#$$$$$$X        ",
"         XX####XX#$$$$$X        ",
"          X####XXX#$$$$         ",
"           XXXXXXXXXXX          "
};
