/* XPM */
static char *result[] = {
/* columns rows colors chars-per-pixel */
"32 32 11 1 ",
"  c #1E1E1E",
". c #747171",
"X c #CA7B10",
"o c #F69310",
"O c #FFA62F",
"+ c #276FBF",
"@ c #5598E3",
"# c #FED7AE",
"$ c gray85",
"% c white",
"& c #FFDBAB",
/* pixels */
"&&&&&&&&&&&&&&&&&&&&&&&&&&&&&&&&",
"&&&&&&&&&&&&&&&&&&&&&&&&&&&&&&&&",
"&&&&&&&&&&&&&&OOOO&&&&&&&&&&&&&&",
"&&&&&&&&&&&&ooOOOOOO&&&&&&&&&&&&",
"&&&&&&&&&&oooooOOOOOOO&&&&&&&&&&",
"&&&&&&&&&ooooooOOOOOOOO&&&&&&&&&",
"&&&&&&&&oooooooOOOOOOOOO&&&&&&&&",
"&&&&&&&oooooooOOOOOOOOOOO&&&&&&&",
"&&&&&&oXXXXooOOOOOOOOOXXXO&&&&&&",
"&&&&&&ooooXXOOOOOOOOXXOOOO&&&&&&",
"&&&&&&ooooooXXXXXXXXOOOOOO&&&&&&",
"&&&&&&    ooOOOOOOOOOO    &&&&&&",
"&&&&&&      OOOOOOOO      &&&&&&",
"&&&&&                      &&&&&",
"&&&&&&                    &&&&&&",
"&&&&&&                    &&&&&&",
"&&&&&&&                  &&&&&&&",
"&&&&&&&&                &&&&&&&&",
"&&&&&&&                  &&&&&&&",
"&&&&&&&&&&&$     $$$%&&&&&&&&&&&",
"&&&&&&&&&&%%$$$$%%%%%%&&&&&&&&&&",
"&&&&&&&&&%%$%%%%%%%%%$%&&&&&&&&&",
"&&&&&&&&&%%$%%%%%%%%%$$&&&&&&&&&",
"&&&&&&&&&%#$$%%%%%%%%#$&&&&&&&&&",
"&&&&&&&&&##$$$%%%%%%%##&&&&&&&&&",
"&&&&&&&&&&#+++@@@@@@@#&&&&&&&&&&",
"&&&&&&&&&..++@@@@@@@@..&&&&&&&&&",
"&&&&&&&&...++@@@+@@@@...&&&&&&&&",
"&&&&&&&&...++@@@+@@@@...&&&&&&&&",
"&&&&&&&&...++@@@+@@@@...&&&&&&&&",
"&&&&&&&&&..++@@@+@@@@..&&&&&&&&&",
"&&&&&&&&&&............&&&&&&&&&&"
};
